<svg xmlns="http://www.w3.org/2000/svg" width="40" height="40" viewBox="0 0 40 40">
  <path id="Icon_awesome-arrow-circle-down" data-name="Icon awesome-arrow-circle-down" d="M40.563,20.563a20,20,0,1,1-20-20A20,20,0,0,1,40.563,20.563ZM28.982,18.232l-5.839,6.089V9.595a1.931,1.931,0,0,0-1.935-1.935h-1.29a1.931,1.931,0,0,0-1.935,1.935V24.321l-5.839-6.089A1.938,1.938,0,0,0,9.377,18.2l-.879.887a1.928,1.928,0,0,0,0,2.734l10.694,10.7a1.928,1.928,0,0,0,2.734,0l10.7-10.7a1.927,1.927,0,0,0,0-2.734l-.879-.887a1.938,1.938,0,0,0-2.766.032Z" transform="translate(-0.563 -0.563)" fill="#fcaf17"/>
</svg>
